<svg id="Layer_1" data-name="Layer 1" xmlns="http://www.w3.org/2000/svg" viewBox="0 0 519.96 341.93"><path d="M67.64,391.9c2.94-4.2,5.33-7.75,7.87-11.21,5-6.76,10-13.43,15-20.18Q101.73,345.3,112.88,330q8.18-11.16,16.32-22.37c4-5.44,7.84-10.94,12-16.26a4.85,4.85,0,0,1,3.68-1.62c5.9.55,11.82,1.11,17.62,2.24,9.16,1.79,18.33,3.66,27.3,6.21,6.74,1.91,13.25,4.77,19.73,7.52a118.69,118.69,0,0,1,13.83,6.88c8.36,4.93,16.74,9.88,24.72,15.4a149.82,149.82,0,0,1,18.49,14.91c8.18,7.85,15.77,16.32,23.53,24.61,2.5,2.66,4.72,5.59,7.06,8.4l-.54.46q-4.84-4.7-9.68-9.4c-.79-.78-1.51-1.64-2.35-2.36-4.54-3.86-8.94-7.9-13.7-11.47-7.21-5.41-14.59-10.6-22.06-15.65-4.11-2.79-8.55-5.1-12.85-7.62A162.89,162.89,0,0,0,202.34,315c-8.69-2.72-17.42-5.36-26.27-7.48-7.67-1.83-15.53-2.89-23.3-4.28-2.09-.38-3.45.64-4.54,2.31-4.67,7.14-9.41,14.25-14.08,21.4q-10.83,16.57-21.62,33.18c-2.21,3.38-4.49,6.71-7,10.43,1.39.18,2.31.32,3.23.4,10.26.9,20.63,1.16,30.76,2.86a300.88,300.88,0,0,1,31.65,7.58,153.8,153.8,0,0,1,18.57,7,135.71,135.71,0,0,1,15.73,7.74c7.77,4.58,15.47,9.35,22.81,14.59a148.44,148.44,0,0,1,17.89,14.8,278.79,278.79,0,0,1,21.26,23.29,185.18,185.18,0,0,1,23.05,37.1c4.16,8.79,7.5,18,11.2,27a2.09,2.09,0,0,1,.06,1.53c-2-3.79-4-7.6-6.06-11.37-1.86-3.4-3.62-6.87-5.75-10.1-4.28-6.49-8.46-13.08-13.26-19.17-6.29-8-12.93-15.7-19.83-23.16-4.78-5.16-10.2-9.74-15.43-14.48a130.55,130.55,0,0,0-21.65-15.86c-4.29-2.52-8.5-5.21-12.9-7.53-5.16-2.71-10.39-5.33-15.77-7.57-6.33-2.63-12.85-4.8-19.28-7.19-14.14-5.26-29-6.5-43.83-8.41a179.28,179.28,0,0,0-33.39-.74c-8,.46-16,1.82-23.92,2.78C69.93,391.67,69.17,391.74,67.64,391.9Z" transform="translate(-45.8 -188.63)"/><path d="M543.94,391.77c-7.55-1-14.71-2-21.88-2.91a70.81,70.81,0,0,0-9.08-.54c-9.28.07-18.66-.5-27.82.64-13.42,1.67-26.77,4.22-40,7.17-7.5,1.68-14.72,4.72-21.92,7.51a113.25,113.25,0,0,0-15.19,7.06c-8.36,4.77-16.69,9.69-24.6,15.16A172.6,172.6,0,0,0,365,440.78c-9,8.26-17.68,17-25,26.8-6.22,8.37-12.32,16.86-18,25.59-3.62,5.54-6.39,11.63-9.54,17.47a3.53,3.53,0,0,1-1.53,1.6,33,33,0,0,1,1.38-5.21c3.32-7.48,6.37-15.13,10.32-22.28,5-9.13,10.5-18.07,16.41-26.67a251.62,251.62,0,0,1,17.46-22.41,136.35,136.35,0,0,1,15.4-14.9c6.51-5.46,13.43-10.45,20.31-15.44a129.32,129.32,0,0,1,27.53-15.11c6.37-2.57,12.81-5,19.14-7.63,9.86-4.15,20.4-5.55,30.69-8,12.13-2.87,24.45-3.14,37.14-3.78-1-1.74-1.8-3.48-2.85-5.07-4.37-6.64-8.85-13.2-13.23-19.84-8.51-12.89-17.12-25.72-25.35-38.79-2.11-3.35-4-4.85-8.07-4-5.57,1.2-11.36,1.45-16.89,2.78-9.36,2.23-18.68,4.74-27.87,7.61a188.8,188.8,0,0,0-18.23,7.1c-5.13,2.21-10.14,4.7-15.09,7.27a151.16,151.16,0,0,0-13.23,7.52c-7.54,4.95-15.09,9.95-22.26,15.41-6.09,4.63-11.72,9.87-17.43,15-3.25,2.9-6.26,6.07-9.62,9.35a6.61,6.61,0,0,1,.63-1.79c2.82-3.38,5.53-6.88,8.58-10.05,6.5-6.78,13-13.59,19.86-20,4.85-4.52,10.26-8.45,15.48-12.57A151.12,151.12,0,0,1,385.27,315c3.88-2,7.64-4.32,11.64-6.05,7.33-3.17,14.83-6,22.21-9,10.78-4.45,22.19-6.24,33.59-8.07,4.41-.71,8.84-1.27,13.25-1.93a5.33,5.33,0,0,1,5.69,2.51c4.94,6.87,10.15,13.56,15.18,20.37,7.38,10,14.69,20,22,30.07,5.4,7.38,10.82,14.75,16.19,22.15q9.27,12.76,18.46,25.59A8.76,8.76,0,0,1,543.94,391.77Z" transform="translate(-45.8 -188.63)"/><path d="M442.66,260.94c-2.54.54-5.09,1-7.62,1.63-7.41,1.74-14.9,3.18-22.17,5.37a205.15,205.15,0,0,0-20.3,7.52,110.72,110.72,0,0,0-15,7.46c-8,4.88-15.94,9.92-23.44,15.51a130,130,0,0,0-15.93,14.3c-9.22,9.62-17.35,20.13-23.35,32.12-2.63,5.24-5,10.6-7.55,15.91-.29.61-.64,1.18-1.22,2.23-.71-1.35-1.26-2.34-1.76-3.35-3.28-6.64-6.27-13.44-9.89-19.89A110,110,0,0,0,276,315.17c-4.83-4.79-9.76-9.48-14.84-14a119.73,119.73,0,0,0-23.81-16.31c-4.71-2.47-9.33-5.16-14.18-7.32-6.26-2.8-12.76-5.06-19.07-7.75-10.42-4.44-21.52-6-32.51-8.15a18,18,0,0,1-2.4-.84l.13-.79c4.45-.25,8.9-.81,13.33-.7,9.87.25,19.84.06,29.55,1.49,11.22,1.66,22.28,4.58,33.25,7.54,6.19,1.67,12.14,4.33,18,6.91a130.23,130.23,0,0,1,15.91,7.92c7.48,4.56,14.63,9.66,21.89,14.57a24.5,24.5,0,0,1,2.2,2.13c2.08,1.89,3.2,1.7,5.44.07,6.6-4.79,13.16-9.68,20.06-14A148.81,148.81,0,0,1,345.86,277c5.67-2.63,11.59-4.7,17.37-7.1,11-4.59,22.74-6.13,34.32-8.45,15-3,29.95-2.06,45-1.5C442.57,260.3,442.61,260.62,442.66,260.94Z" transform="translate(-45.8 -188.63)"/><path d="M45.8,469.82c2.13-5.19,4-9.71,5.86-14.2s3.65-8.79,5.79-13a6.82,6.82,0,0,1,3.67-3.14c4.28-1.31,8.7-2.17,13.36-3.27l-.56,3.73c2.14-.41,4.12-.88,6.12-1.17,8.82-1.28,17.71-2.18,26.45-3.83,10.67-2,21.4-1.8,32.07-1.27a213,213,0,0,1,47.5,7.64,210,210,0,0,1,20.24,6.95c5.83,2.3,11.5,5,17.09,7.87a143.45,143.45,0,0,1,13,7.47,204.64,204.64,0,0,1,28.9,22.46,145.74,145.74,0,0,1,14.49,15.13c7.52,9.43,14.47,19.31,21.65,29,.07.1,0,.31,0,.37-2.85-2.77-5.71-5.66-8.69-8.42-6.77-6.27-13.42-12.69-20.46-18.64-6.38-5.39-13.16-10.29-19.85-15.29A145.85,145.85,0,0,0,227,473c-5.28-2.47-10.47-5.2-15.91-7.26-7.7-2.93-15.54-5.52-23.4-8-21.47-6.69-43.54-7.61-65.74-6a262.84,262.84,0,0,0-32.12,4.34c-9.84,2-19.46,5.14-29.09,8.06C55.86,465.65,51.18,467.76,45.8,469.82Z" transform="translate(-45.8 -188.63)"/><path d="M310.36,529.92c7.31-9.5,14.58-19,22-28.46a78.74,78.74,0,0,1,6.95-7.66c4.32-4.22,8.59-8.55,13.26-12.36,6.8-5.53,13.84-10.77,21-15.89a103.59,103.59,0,0,1,11.65-7.08c5.29-2.83,10.64-5.61,16.17-7.94,6.55-2.77,13.3-5.09,20-7.51,13.17-4.76,27-6.11,40.74-8.14a172.22,172.22,0,0,1,40.89-.65c10.88,1,21.63,3.46,32.44,5.27l3,.5c-.29-1.28-.52-2.34-.87-3.93,5,1.29,9.74,2.46,14.43,3.79a3.66,3.66,0,0,1,2.16,1.74c3.94,9,7.77,18,11.62,27.09.06.12,0,.31-.11.82-5.08-1.95-10-4.15-15.11-5.71-7.6-2.32-15.34-4.14-23-6.28-20.88-5.86-42.25-7-63.75-6.19a157.48,157.48,0,0,0-35.4,5.05c-8,2.17-16,4.67-23.87,7.49a122.73,122.73,0,0,0-16.71,7.41c-8.62,4.64-17.17,9.46-25.37,14.78-7.2,4.68-14,10-20.73,15.35-5.7,4.57-11.12,9.52-16.44,14.53-4.39,4.12-8.45,8.58-12.66,12.88-.55.56-1.17,1-1.76,1.58Z" transform="translate(-45.8 -188.63)"/><path d="M55.24,429.37c3.91-6.81,7.53-13.08,11.11-19.36a42.61,42.61,0,0,0,2.4-4.59,7.41,7.41,0,0,1,6.2-4.51c4.19-.61,8.43-.82,12.84-1.21l-1.12,3.58c5.26-.34,10.35-.8,15.45-.95,13-.39,26.08-.45,38.94,1.62,11.39,1.84,22.69,4.37,33.87,7.21A116.59,116.59,0,0,1,195,418.34c10.2,4.73,20.33,9.73,30,15.43A156.12,156.12,0,0,1,246,448.87a199.07,199.07,0,0,1,26.1,26.47,250.59,250.59,0,0,1,22.57,33.13c2.24,3.87,4.08,8,6.08,12a4.25,4.25,0,0,1,.5,2.59c-1.13-1.56-2.27-3.1-3.38-4.67-3-4.24-5.63-8.72-8.93-12.68-7.67-9.2-15.46-18.31-23.57-27.12-3.95-4.29-8.7-7.85-13.15-11.67a151,151,0,0,0-23.09-16.53c-3-1.76-5.92-3.82-9.06-5.37-6.86-3.39-13.72-6.83-20.8-9.7s-14.45-5-21.63-7.56c-10.81-3.92-22.07-5.72-33.4-6.46-12.09-.78-24.26-.81-36.37-.46a207.12,207.12,0,0,0-39.07,5.31c-3.75.83-7.43,2-11.15,2.93A20.56,20.56,0,0,1,55.24,429.37Z" transform="translate(-45.8 -188.63)"/><path d="M310.07,523.3c1.22-2.53,2.32-5.13,3.66-7.59,6.68-12.2,13.78-24.11,22.43-35.08,6.2-7.87,12.44-15.67,20-22.3,6-5.21,12-10.37,18.05-15.41a121.49,121.49,0,0,1,23.63-15.15c5.15-2.56,10.24-5.26,15.54-7.47,6.64-2.77,13.49-5.06,20.23-7.61,11.21-4.24,23-5.7,34.69-8,16-3.12,32-2.76,48-2,3,.14,6,.4,9.29.62-.42-1.27-.76-2.3-1.22-3.72,4.66.53,9.17.64,13.46,1.69a9.94,9.94,0,0,1,5.41,4.3c4.69,7.71,9,15.66,13.87,24.26-4.41-1.25-8.07-2.41-11.79-3.32s-7.41-1.66-11.14-2.32a254.22,254.22,0,0,0-45-4c-16.6.07-33.07,1.6-49.18,5.62a257.63,257.63,0,0,0-25,8.06,101.65,101.65,0,0,0-15,6.79c-8.71,4.84-17.39,9.8-25.67,15.32a160.93,160.93,0,0,0-18.89,14.83,294.16,294.16,0,0,0-22.25,22.28c-6.32,7.15-11.75,15.1-17.46,22.77-1.83,2.46-3.33,5.17-5,7.76Z" transform="translate(-45.8 -188.63)"/><path d="M342.7,224.25c-.24,9.88-3.4,18.49-10.53,25.66-3.67,3.7-8.09,5.65-12.73,7.6A23.22,23.22,0,0,1,305,258.66c-14.53-3.3-24.27-12.92-26.94-28.17-2.08-11.83,1-22.38,9.18-31.42,3-3.31,6.59-5.41,10.47-7.35a25.87,25.87,0,0,1,18.06-2.39c9.67,2.34,17.36,7.52,22.24,16.52A36.62,36.62,0,0,1,342.7,224.25Z" transform="translate(-45.8 -188.63)"/></svg>